<svg width="50" height="50" viewBox="0 0 50 50" fill="none" xmlns="http://www.w3.org/2000/svg">
<g clip-path="url(#clip0_1989_26982)">
<path d="M36.1103 19.9052C33.4768 8.28244 27.2529 4.46084 26.5827 3.00077C25.8499 1.97065 25.1072 0.138434 25.1072 0.138434C25.095 0.10749 25.0754 0.0529307 25.0526 0C24.9769 1.03011 24.9378 1.4275 23.9639 2.46657C22.4558 3.64571 14.7181 10.1383 14.0886 23.3433C13.5015 35.659 22.9851 42.9977 24.2676 43.9333L24.4134 44.0367V44.0278C24.4215 44.0897 24.8206 46.9593 25.1007 50H26.1055C26.3413 47.8506 26.6947 45.7158 27.1642 43.6051L27.2456 43.5522C27.8193 43.1409 28.3663 42.6934 28.8832 42.2127L28.9418 42.1597C31.6682 39.641 36.5695 33.8154 36.5215 24.5273C36.5114 22.9779 36.3738 21.432 36.1103 19.9052ZM24.994 36.9799C24.994 36.9799 24.994 19.7065 25.564 19.7098C26.0086 19.7098 26.5844 41.9904 26.5844 41.9904C25.7929 41.8951 24.994 38.3235 24.994 36.9799Z" fill="#00684A"/>
</g>
<defs>
<clipPath id="clip0_1989_26982">
<rect width="50" height="50" fill="white"/>
</clipPath>
</defs>
</svg>
