<svg width="50" height="50" viewBox="0 0 50 50" fill="none" xmlns="http://www.w3.org/2000/svg">
<g clip-path="url(#clip0_1989_26983)">
<path d="M48.7369 7.25836L26.2981 47.3828C25.8348 48.2112 24.6445 48.2161 24.1743 47.3917L1.2906 7.26222C0.778307 6.36384 1.54652 5.27566 2.56455 5.45762L25.0273 9.47272C25.1706 9.49833 25.3173 9.49809 25.4606 9.47198L47.4537 5.46338C48.4683 5.27845 49.2402 6.35821 48.7369 7.25836Z" fill="url(#paint0_linear_1989_26983)"/>
<path d="M35.7273 0.191462L19.1219 3.44522C18.849 3.49869 18.6469 3.72999 18.6305 4.00756L17.609 21.2592C17.585 21.6656 17.9582 21.9809 18.3547 21.8895L22.9779 20.8225C23.4105 20.7228 23.8013 21.1037 23.7124 21.5387L22.3389 28.2647C22.2464 28.7174 22.6714 29.1045 23.1135 28.9702L25.969 28.1026C26.4117 27.9682 26.8371 28.3564 26.7434 28.8095L24.5606 39.3745C24.424 40.0353 25.303 40.3957 25.6696 39.8291L25.9145 39.4507L39.4455 12.4473C39.6721 11.9951 39.2813 11.4796 38.7847 11.5754L34.026 12.4939C33.5788 12.5801 33.1983 12.1636 33.3245 11.7261L36.4305 0.958839C36.5568 0.520577 36.175 0.103753 35.7273 0.191462Z" fill="url(#paint1_linear_1989_26983)"/>
</g>
<defs>
<linearGradient id="paint0_linear_1989_26983" x1="0.731881" y1="4.02364" x2="28.6587" y2="41.9505" gradientUnits="userSpaceOnUse">
<stop stop-color="#41D1FF"/>
<stop offset="1" stop-color="#BD34FE"/>
</linearGradient>
<linearGradient id="paint1_linear_1989_26983" x1="23.7378" y1="1.07485" x2="28.7896" y2="35.7298" gradientUnits="userSpaceOnUse">
<stop stop-color="#FFEA83"/>
<stop offset="0.0833333" stop-color="#FFDD35"/>
<stop offset="1" stop-color="#FFA800"/>
</linearGradient>
<clipPath id="clip0_1989_26983">
<rect width="50" height="50" fill="white"/>
</clipPath>
</defs>
</svg>
