<svg width="64" height="64" viewBox="0 0 64 64" fill="none" xmlns="http://www.w3.org/2000/svg">
<path d="M0 32C0 14.3269 14.3269 0 32 0C49.6731 0 64 14.3269 64 32C64 49.6731 49.6731 64 32 64C14.3269 64 0 49.6731 0 32Z" fill="#02B0CA"/>
<path d="M0 32C0 14.3269 14.3269 0 32 0C49.6731 0 64 14.3269 64 32C64 49.6731 49.6731 64 32 64C14.3269 64 0 49.6731 0 32Z" fill="white" fill-opacity="0.8"/>
<g clip-path="url(#clip0_1989_26784)">
<path d="M27.539 18.666H20.4612C19.4701 18.666 18.6667 19.4694 18.6667 20.4605V27.5382C18.6667 28.5293 19.4701 29.3327 20.4612 29.3327H27.539C28.53 29.3327 29.3334 28.5293 29.3334 27.5382V20.4605C29.3334 19.4694 28.53 18.666 27.539 18.666Z" fill="#02B0CA"/>
<path d="M43.539 18.666H36.4612C35.4701 18.666 34.6667 19.493 34.6667 20.5132V43.4855C34.6667 44.5057 35.4701 45.3327 36.4612 45.3327H43.539C44.53 45.3327 45.3334 44.5057 45.3334 43.4855V20.5132C45.3334 19.493 44.53 18.666 43.539 18.666Z" fill="#02B0CA"/>
<path d="M24.0001 45.3327C26.9456 45.3327 29.3334 42.9449 29.3334 39.9993C29.3334 37.0538 26.9456 34.666 24.0001 34.666C21.0546 34.666 18.6667 37.0538 18.6667 39.9993C18.6667 42.9449 21.0546 45.3327 24.0001 45.3327Z" fill="#02B0CA"/>
</g>
<defs>
<clipPath id="clip0_1989_26784">
<rect width="32" height="32" fill="white" transform="translate(16 16)"/>
</clipPath>
</defs>
</svg>
