<svg width="50" height="50" viewBox="0 0 50 50" fill="none" xmlns="http://www.w3.org/2000/svg">
<g clip-path="url(#clip0_1989_26981)">
<path d="M34.6519 34.3825C36.4624 34.2263 37.8665 32.6325 37.7749 30.7284C37.679 28.8242 36.1186 27.295 34.2165 27.295H34.0894C32.1249 27.3596 30.5936 29.0117 30.6561 30.9805C30.7186 31.9784 31.1269 32.7909 31.6853 33.3825C29.5019 37.6284 26.2249 40.7492 21.2603 43.3721C17.9207 45.118 14.3936 45.7763 10.9603 45.3075C8.08945 44.9034 5.84361 43.62 4.46861 41.5617C2.41028 38.4388 2.22278 35.07 3.93736 31.6992C5.18945 29.2638 7.06028 27.4846 8.31028 26.6096C7.99778 25.7992 7.62278 24.4263 7.43528 23.3971C-1.80639 30.0159 -0.866805 39.0659 1.94153 43.343C4.0332 46.4638 8.31028 48.4596 12.9915 48.4596C14.2394 48.4596 15.5519 48.368 16.8311 48.0555C24.9478 46.495 31.0957 41.6263 34.6228 34.4471L34.6519 34.3825ZM45.7936 26.5784C40.9582 20.8971 33.8394 17.7763 25.7228 17.7763H24.6603C24.1332 16.6221 22.9165 15.9034 21.5415 15.9034H21.4478C19.4832 15.9034 17.9519 17.5909 18.0165 19.5555C18.079 21.4263 19.6707 22.9888 21.5749 22.9888H21.729C23.1353 22.9263 24.3519 22.0513 24.8499 20.8034H26.0061C30.8165 20.8034 35.3707 22.2075 39.5228 24.9534C42.704 27.045 44.9853 29.7909 46.2645 33.07C47.3853 35.7534 47.3249 38.3763 46.1707 40.5638C44.3915 43.995 41.3936 45.8075 37.4311 45.8075C34.9332 45.8075 32.4999 45.0263 31.2499 44.4659C30.5019 45.0867 29.2519 46.118 28.3457 46.743C31.0915 47.9888 33.8707 48.7075 36.554 48.7075C42.6415 48.7075 47.1644 45.2763 48.8832 41.9659C50.754 38.22 50.5999 31.9159 45.8228 26.5159L45.7936 26.5784ZM13.5207 35.5034C13.5811 37.3763 15.1728 38.9367 17.079 38.9367H17.204C19.2019 38.8742 20.7311 37.2221 20.6374 35.2534C20.6374 33.3805 19.0144 31.8221 17.1103 31.8221H16.9832C16.8582 31.8221 16.6728 31.8221 16.5144 31.8825C13.9249 27.5117 12.8311 22.8284 13.2394 17.7763C13.4874 13.968 14.7374 10.6576 16.9832 7.91172C18.8561 5.57005 22.3832 4.4138 24.7874 4.35338C31.529 4.2263 34.3394 12.6263 34.5561 15.9659L37.6769 16.9013C36.9582 6.6638 30.5936 1.29297 24.5061 1.29297C18.7936 1.29297 13.5207 5.44505 11.3957 11.5326C8.49361 19.6492 10.3978 27.4513 13.9561 33.695C13.6457 34.1013 13.4582 34.818 13.5207 35.5034Z" fill="#7649BB"/>
</g>
<defs>
<clipPath id="clip0_1989_26981">
<rect width="50" height="50" fill="white"/>
</clipPath>
</defs>
</svg>
