<svg width="64" height="64" viewBox="0 0 64 64" fill="none" xmlns="http://www.w3.org/2000/svg">
<path d="M0 32C0 14.3269 14.3269 0 32 0C49.6731 0 64 14.3269 64 32C64 49.6731 49.6731 64 32 64C14.3269 64 0 49.6731 0 32Z" fill="#FA4FA3"/>
<path d="M0 32C0 14.3269 14.3269 0 32 0C49.6731 0 64 14.3269 64 32C64 49.6731 49.6731 64 32 64C14.3269 64 0 49.6731 0 32Z" fill="white" fill-opacity="0.8"/>
<g clip-path="url(#clip0_1989_26802)">
<path fill-rule="evenodd" clip-rule="evenodd" d="M36.0002 25.338L36.1231 25.3426C36.7562 25.4163 37.2476 25.9558 37.2476 26.6104C37.2474 26.831 37.2405 27.0501 37.2268 27.2678C37.5766 31.3486 40.9156 34.568 45.0328 34.7225L45.394 34.7283C46.0969 34.7283 46.6668 35.2998 46.6668 36.0048C46.6668 36.7097 46.0969 37.2812 45.394 37.2812C40.9186 37.281 37.2811 40.9012 37.2476 45.3889C37.2476 46.0435 36.7562 46.583 36.1231 46.6567L36.0002 46.6633L35.8772 46.6567C35.2441 46.583 34.7527 46.0435 34.7527 45.3889C34.7192 40.9012 31.0817 37.281 26.6064 37.2812C25.9034 37.2812 25.3335 36.7097 25.3335 36.0048C25.3335 35.2998 25.9034 34.7283 26.6064 34.7283L26.6573 34.7283C30.9159 34.7284 34.415 31.4506 34.7736 27.2678C34.7598 27.0501 34.753 26.831 34.7527 26.6104C34.7527 25.9558 35.2441 25.4163 35.8772 25.3426L36.0002 25.338ZM24.6617 17.334C25.3644 17.334 25.934 17.9038 25.934 18.6067C25.9396 21.2512 28.0843 23.3921 30.7279 23.3921C31.4305 23.3921 32.0002 23.9619 32.0002 24.6648C32.0002 25.3175 31.509 25.8554 30.8763 25.9289L30.7279 25.9375C28.1686 25.9375 26.0776 27.9438 25.9411 30.4699L25.934 30.7331L25.9234 30.8979L25.8855 31.0813L25.8354 31.2244L25.7798 31.3409L25.6663 31.514L25.5613 31.6331C25.5146 31.6798 25.4645 31.7226 25.4117 31.7611L25.2923 31.8385L25.1528 31.9072L25.067 31.9398L24.9879 31.9632L24.8236 31.9954C24.7708 32.0023 24.7167 32.0058 24.6617 32.0058C23.9591 32.0058 23.3895 31.436 23.3895 30.7331C23.3895 28.0885 21.2494 25.9431 18.6058 25.9375C17.9031 25.9375 17.3335 25.3677 17.3335 24.6648C17.3335 23.9619 17.9031 23.3921 18.6058 23.3921C21.2454 23.3865 23.3839 21.2473 23.3895 18.6067C23.3895 17.9038 23.9591 17.334 24.6617 17.334Z" fill="#FA4FA3"/>
</g>
<defs>
<clipPath id="clip0_1989_26802">
<rect width="32" height="32" fill="white" transform="translate(16 16)"/>
</clipPath>
</defs>
</svg>
