<svg width="50" height="50" viewBox="0 0 50 50" fill="none" xmlns="http://www.w3.org/2000/svg">
<g clip-path="url(#clip0_1989_26986)">
<mask id="mask0_1989_26986" style="mask-type:luminance" maskUnits="userSpaceOnUse" x="0" y="9" width="50" height="31">
<path d="M0 9.375H50V39.375H0V9.375Z" fill="white"/>
</mask>
<g mask="url(#mask0_1989_26986)">
<path fill-rule="evenodd" clip-rule="evenodd" d="M25 9.375C18.3333 9.375 14.1667 12.7083 12.5 19.375C15 16.0417 17.9167 14.7917 21.25 15.625C23.1519 16.1 24.5111 17.4806 26.0157 19.0074C28.4667 21.4954 31.3037 24.375 37.5 24.375C44.1667 24.375 48.3333 21.0417 50 14.375C47.5 17.7083 44.5833 18.9583 41.25 18.125C39.3481 17.65 37.9889 16.2694 36.4843 14.7426C34.0333 12.2546 31.1963 9.375 25 9.375ZM12.5 24.375C5.83333 24.375 1.66667 27.7083 0 34.375C2.5 31.0417 5.41667 29.7917 8.75 30.625C10.6519 31.1009 12.0111 32.4806 13.5157 34.0074C15.9667 36.4954 18.8037 39.375 25 39.375C31.6667 39.375 35.8333 36.0417 37.5 29.375C35 32.7083 32.0833 33.9583 28.75 33.125C26.8481 32.65 25.4889 31.2694 23.9843 29.7426C21.5333 27.2546 18.6963 24.375 12.5 24.375Z" fill="#38BDF8"/>
</g>
</g>
<defs>
<clipPath id="clip0_1989_26986">
<rect width="50" height="50" fill="white"/>
</clipPath>
</defs>
</svg>
