<svg width="50" height="50" viewBox="0 0 50 50" fill="none" xmlns="http://www.w3.org/2000/svg">
<g clip-path="url(#clip0_1989_26980)">
<path d="M25.0879 20.7852C22.443 20.7852 20.2988 22.9293 20.2988 25.5743C20.2988 28.2192 22.443 30.3634 25.0879 30.3634C27.7329 30.3634 29.877 28.2192 29.877 25.5743C29.877 22.9293 27.7329 20.7852 25.0879 20.7852Z" fill="#58C4DC"/>
<path d="M49.9965 25.6201C49.9965 21.8603 46.5147 18.5627 40.9711 16.3926C41.0452 15.9039 41.1122 15.4204 41.1599 14.9458C41.7066 9.54341 40.405 5.64421 37.4965 3.96456C34.2423 2.08553 29.6458 3.44937 24.9982 7.1686C20.3506 3.44937 15.7542 2.08553 12.5 3.96456C9.59151 5.64421 8.28983 9.54341 8.8366 14.9458C8.88422 15.4204 8.94948 15.9056 9.02533 16.3961C8.56321 16.5726 8.10992 16.7596 7.67426 16.9554C2.72506 19.1803 0 22.2608 0 25.6201C0 29.3799 3.48173 32.6775 9.02533 34.8476C8.94948 35.3364 8.88422 35.8198 8.8366 36.2944C8.28983 41.6968 9.59151 45.596 12.5 47.2757C13.5 47.8427 14.6331 48.1326 15.7824 48.1155C18.5375 48.1155 21.7546 46.6652 24.9982 44.0716C28.2401 46.6652 31.459 48.1155 34.2176 48.1155C35.3669 48.1324 36.4999 47.8425 37.5 47.2757C40.4085 45.596 41.7102 41.6968 41.1634 36.2944C41.1158 35.8198 41.0488 35.3364 40.9747 34.8476C46.5183 32.681 50 29.3782 50 25.6201M34.1964 5.50659C34.9354 5.48876 35.6659 5.66778 36.313 6.02531C38.3325 7.19154 39.2391 10.355 38.7982 14.7041C38.7682 15.0005 38.7329 15.3005 38.6906 15.6022C36.3855 14.9078 34.0251 14.4125 31.6354 14.1219C30.1867 12.1957 28.5758 10.3971 26.8202 8.74593C29.577 6.6146 32.1645 5.50659 34.1946 5.50659M33.2475 30.3838C32.3554 31.9326 31.3841 33.4343 30.3372 34.8829C28.5628 35.0653 26.7802 35.1559 24.9965 35.1546C23.2133 35.1559 21.4313 35.0652 19.6575 34.8829C18.6134 33.4343 17.645 31.9326 16.756 30.3838C15.864 28.8394 15.0533 27.2493 14.3273 25.6201C15.0533 23.991 15.864 22.4009 16.756 20.8564C17.6436 19.3139 18.6091 17.8175 19.6487 16.3732C21.4257 16.1863 23.2114 16.0933 24.9982 16.0944C26.7814 16.0933 28.5634 16.184 30.3372 16.3661C31.3804 17.8127 32.3494 19.3114 33.2404 20.8564C34.1318 22.4013 34.9424 23.9913 35.6692 25.6201C34.9424 27.2489 34.1318 28.839 33.2404 30.3838M36.8827 28.6195C37.4425 30.1464 37.902 31.7082 38.2584 33.295C36.7117 33.7773 35.135 34.1575 33.5385 34.433C34.1453 33.5179 34.7332 32.5657 35.3023 31.5765C35.865 30.5991 36.3923 29.6128 36.8897 28.6266M21.6488 37.4289C22.7459 37.4959 23.8659 37.5347 25 37.5347C26.1341 37.5347 27.2612 37.4959 28.36 37.4289C27.3182 38.6772 26.1958 39.8559 25 40.9576C23.8068 39.8561 22.6873 38.6773 21.6488 37.4289ZM16.4597 34.4295C14.8627 34.1552 13.2854 33.7762 11.738 33.295C12.093 31.7107 12.5508 30.1513 13.1085 28.6266C13.5988 29.6128 14.1245 30.5991 14.6959 31.5765C15.2674 32.554 15.8583 33.5173 16.4597 34.433M13.1085 22.6119C12.5528 21.0928 12.0962 19.5393 11.7416 17.9611C13.2851 17.4793 14.8581 17.098 16.4509 16.8196C15.8477 17.7317 15.2568 18.6774 14.6871 19.6637C14.1174 20.65 13.5971 21.6239 13.0997 22.6119M28.3494 13.8096C27.2524 13.7426 26.1324 13.7037 24.9894 13.7037C23.8559 13.7037 22.7388 13.739 21.6382 13.8096C22.6768 12.5612 23.7962 11.3824 24.9894 10.2809C26.1856 11.3821 27.3081 12.5609 28.3494 13.8096ZM35.2988 19.6637C34.7273 18.6733 34.1364 17.7206 33.5262 16.8055C35.1269 17.081 36.7078 17.4617 38.2584 17.9452C37.9026 19.5293 37.4449 21.0887 36.888 22.6137C36.3976 21.6274 35.8703 20.6411 35.3005 19.6655M11.2054 14.7059C10.7591 10.3585 11.671 7.19331 13.6888 6.02707C14.3361 5.6701 15.0664 5.49112 15.8053 5.50836C17.8355 5.50836 20.423 6.61636 23.1798 8.74769C21.423 10.4 19.8109 12.1998 18.3611 14.1272C15.972 14.4192 13.6119 14.9126 11.3059 15.6022C11.2653 15.3005 11.2283 15.0023 11.2001 14.7059M8.6514 19.1273C8.92303 19.0097 9.19994 18.8921 9.48215 18.7745C10.037 21.1158 10.7893 23.4059 11.731 25.6201C10.7875 27.8387 10.0346 30.1335 9.48039 32.4799C4.98624 30.6361 2.38112 28.0814 2.38112 25.6201C2.38112 23.2877 4.67405 20.9217 8.6514 19.1273ZM13.6888 45.2132C11.671 44.0469 10.7591 40.8817 11.2054 36.5343C11.2336 36.2379 11.2706 35.9398 11.3112 35.6363C13.6163 36.3305 15.9767 36.8257 18.3664 37.1166C19.8155 39.0435 21.4264 40.8432 23.1815 42.4961C19.3382 45.4655 15.8265 46.4447 13.6941 45.2132M38.7964 36.5343C39.2373 40.8835 38.3307 44.0469 36.3112 45.2132C34.1805 46.4482 30.6671 45.4655 26.8255 42.4961C28.5801 40.8432 30.1904 39.0435 31.6389 37.1166C34.0286 36.8259 36.389 36.3307 38.6941 35.6363C38.7364 35.9398 38.7717 36.2379 38.8017 36.5343M40.5267 32.4764C39.9709 30.1314 39.2174 27.8377 38.2743 25.6201C39.217 23.4013 39.9699 21.1065 40.5249 18.7603C45.0102 20.6041 47.6224 23.1589 47.6224 25.6201C47.6224 28.0814 45.0173 30.6361 40.5231 32.4799" fill="#58C4DC"/>
</g>
<defs>
<clipPath id="clip0_1989_26980">
<rect width="50" height="50" fill="white"/>
</clipPath>
</defs>
</svg>
