<svg width="50" height="50" viewBox="0 0 50 50" fill="none" xmlns="http://www.w3.org/2000/svg">
<g clip-path="url(#clip0_1989_26984)">
<path d="M45.6208 11.0789L27.3867 0.491238C26.2368 -0.163746 24.7395 -0.163746 23.5804 0.491238L5.15156 11.0789C3.96482 11.7616 3.125 13.0447 3.125 14.4171V35.5643C3.125 36.9367 3.98673 38.2202 5.17348 38.9066L10.0424 41.6721C12.3696 42.8183 13.1921 42.8183 14.251 42.8183C17.6967 42.8183 19.665 40.7347 19.665 37.1005V16.2228C19.665 15.928 19.5116 15.4893 19.2221 15.4893H16.897C16.6026 15.4893 15.9435 15.928 15.9435 16.2224V37.1C15.9435 38.711 14.4863 40.3142 11.763 38.9525L6.73196 36.0526C6.55664 35.9575 6.433 35.7661 6.433 35.5643V14.4171C6.433 14.2178 6.66249 14.0176 6.83906 13.9155L25.2084 3.34604C25.38 3.24887 25.6322 3.24887 25.8034 3.34604L43.9486 13.913C44.1223 14.0176 44.0611 14.2116 44.0611 14.4171V35.5643C44.0611 35.7661 44.1368 35.9625 43.9651 36.0597L25.7356 46.6353C25.5793 46.7292 25.3854 46.7292 25.2142 46.6353L20.5387 43.8446C20.3977 43.7628 20.2303 43.7334 20.095 43.8091C18.7942 44.5463 18.5543 44.6443 17.3341 45.0674C17.0339 45.172 16.591 45.3535 17.5036 45.865L23.6226 49.4848C24.2085 49.8238 24.8743 50 25.5441 50C26.2231 50 26.888 49.8238 27.4739 49.4848L45.6204 38.9066C46.8071 38.2153 47.3695 36.9367 47.3695 35.5643V14.4171C47.3695 13.0447 46.8071 11.7649 45.6208 11.0789ZM31.2058 32.2133C26.3571 32.2133 25.289 30.8756 24.933 28.4645C24.8916 28.2048 24.6712 27.8943 24.407 27.8943H22.0372C21.7441 27.8943 21.5084 28.2499 21.5084 28.5418C21.5084 31.629 23.1868 35.3695 31.2062 35.3695C37.0113 35.3695 40.3396 33.1139 40.3396 29.122C40.3396 25.164 37.6655 24.1252 32.0357 23.3801C26.3451 22.628 25.767 22.2479 25.767 20.9148C25.767 19.8157 26.2566 18.3499 30.4702 18.3499C34.2351 18.3499 35.6228 19.1579 36.1938 21.6955C36.2426 21.9341 36.4605 22.1053 36.7066 22.1053H39.0858C39.2322 22.1053 39.372 22.0462 39.4745 21.9415C39.5738 21.8291 39.6263 21.6881 39.6131 21.5367C39.2446 17.1669 36.3414 15.1304 30.4698 15.1304C25.2468 15.1304 22.1311 17.336 22.1311 21.0331C22.1311 25.0432 25.2311 26.1514 30.2448 26.6472C36.2426 27.2352 36.7091 28.1118 36.7091 29.2915C36.7091 31.3404 35.0642 32.2133 31.2058 32.2133Z" fill="#83CD29"/>
</g>
<defs>
<clipPath id="clip0_1989_26984">
<rect width="50" height="50" fill="white"/>
</clipPath>
</defs>
</svg>
