<svg width="64" height="64" viewBox="0 0 64 64" fill="none" xmlns="http://www.w3.org/2000/svg">
<path d="M0 32C0 14.3269 14.3269 0 32 0C49.6731 0 64 14.3269 64 32C64 49.6731 49.6731 64 32 64C14.3269 64 0 49.6731 0 32Z" fill="#0070C9"/>
<path d="M0 32C0 14.3269 14.3269 0 32 0C49.6731 0 64 14.3269 64 32C64 49.6731 49.6731 64 32 64C14.3269 64 0 49.6731 0 32Z" fill="white" fill-opacity="0.8"/>
<g clip-path="url(#clip0_1989_26804)">
<path d="M28.4199 18.9131C28.4685 18.8453 28.4044 18.7532 28.3241 18.7758C26.1783 19.402 24.1751 20.5788 22.5269 22.2633C20.4094 24.4274 19.108 27.1942 18.7125 30.1026C18.6857 30.2992 18.8405 30.4716 19.039 30.4715L24.2761 30.4713C24.4527 30.4713 24.5984 30.3334 24.6107 30.1572C24.9118 25.8634 26.2606 21.9317 28.4199 18.9131Z" fill="#0070C9"/>
<path d="M32.1267 19.5844C32.0178 19.4696 31.8345 19.471 31.7275 19.5875C29.436 22.159 27.9478 25.9068 27.6042 30.1161C27.5885 30.3082 27.7413 30.4713 27.934 30.4713L36.0629 30.4713C36.256 30.4713 36.4089 30.3076 36.3925 30.1152C36.0369 25.9292 34.5047 22.1819 32.1461 19.6049L32.1267 19.5844Z" fill="#0070C9"/>
<path d="M24.6131 33.8372C24.6007 33.6627 24.4555 33.5275 24.2806 33.5275L19.0385 33.5275C18.8401 33.5275 18.6853 33.6998 18.712 33.8964C18.8666 35.0336 19.1621 36.1624 19.6037 37.2561C21.107 40.9793 24.0886 43.7642 27.68 45.0167C27.9781 45.1207 28.2199 44.7785 28.0461 44.5149C26.1598 41.6542 24.9624 38.0638 24.6367 34.169L24.6131 33.8372Z" fill="#0070C9"/>
<path d="M36.3892 33.8843C36.4061 33.6916 36.2531 33.5274 36.0596 33.5274L27.9349 33.5284C27.7421 33.5284 27.5893 33.6916 27.6052 33.8838C27.9498 38.0578 29.4309 41.7961 31.7192 44.378L31.8324 44.5012C31.8847 44.5581 31.9739 44.5598 32.0284 44.505C34.4076 41.9811 36.0163 38.118 36.3892 33.8843Z" fill="#0070C9"/>
<path d="M45.2866 33.9018C45.3113 33.703 45.1562 33.5274 44.9559 33.5274L39.7191 33.5272C39.5431 33.5271 39.3976 33.6642 39.3844 33.8398C39.0848 37.835 37.8204 41.6064 35.8255 44.555C35.6484 44.8168 35.8866 45.1622 36.1861 45.0613C40.9582 43.4543 44.5498 39.1794 45.2798 33.9567L45.2866 33.9018Z" fill="#0070C9"/>
<path d="M35.5953 18.7544C35.4935 18.726 35.4136 18.8426 35.4768 18.9273C37.6923 21.952 39.0767 25.8842 39.3869 30.1579C39.3997 30.3338 39.5452 30.4713 39.7216 30.4713L44.9619 30.4719C45.1602 30.4719 45.315 30.2995 45.2884 30.1029C44.6417 25.334 41.5856 21.1989 37.1642 19.3091C36.7012 19.1112 36.2318 18.9416 35.7579 18.7997L35.5953 18.7544Z" fill="#0070C9"/>
</g>
<defs>
<clipPath id="clip0_1989_26804">
<rect width="32" height="32" fill="white" transform="translate(16 16)"/>
</clipPath>
</defs>
</svg>
