<svg width="64" height="64" viewBox="0 0 64 64" fill="none" xmlns="http://www.w3.org/2000/svg">
<path d="M0 32C0 14.3269 14.3269 0 32 0C49.6731 0 64 14.3269 64 32C64 49.6731 49.6731 64 32 64C14.3269 64 0 49.6731 0 32Z" fill="#7276F7"/>
<path d="M0 32C0 14.3269 14.3269 0 32 0C49.6731 0 64 14.3269 64 32C64 49.6731 49.6731 64 32 64C14.3269 64 0 49.6731 0 32Z" fill="white" fill-opacity="0.8"/>
<g clip-path="url(#clip0_1989_26775)">
<path fill-rule="evenodd" clip-rule="evenodd" d="M32.0001 18.666C24.6363 18.666 18.6667 24.6356 18.6667 31.9993C18.6667 39.3631 24.6363 45.3327 32.0001 45.3327C39.3639 45.3327 45.3334 39.3631 45.3334 31.9993C45.3334 28.4631 43.9287 25.0717 41.4282 22.5713C38.9277 20.0708 35.5363 18.666 32.0001 18.666ZM37.4134 32.666L29.2534 37.826C29.0003 37.9786 28.685 37.9845 28.4265 37.8414C28.1679 37.6984 28.0053 37.4282 28.0001 37.1327V26.866C27.9967 26.5668 28.1578 26.2898 28.4197 26.145C28.6815 26.0001 29.0018 26.0108 29.2534 26.1727L37.4267 31.2793C37.6601 31.434 37.7993 31.6963 37.7966 31.9763C37.7939 32.2563 37.6497 32.5158 37.4134 32.666Z" fill="#7276F7"/>
<path fill-rule="evenodd" clip-rule="evenodd" d="M32.0001 18.666C24.6363 18.666 18.6667 24.6356 18.6667 31.9993C18.6667 39.3631 24.6363 45.3327 32.0001 45.3327C39.3639 45.3327 45.3334 39.3631 45.3334 31.9993C45.3334 28.4631 43.9287 25.0717 41.4282 22.5713C38.9277 20.0708 35.5363 18.666 32.0001 18.666ZM37.4134 32.666L29.2534 37.826C29.0003 37.9786 28.685 37.9845 28.4265 37.8414C28.1679 37.6984 28.0053 37.4282 28.0001 37.1327V26.866C27.9967 26.5668 28.1578 26.2898 28.4197 26.145C28.6815 26.0001 29.0018 26.0108 29.2534 26.1727L37.4267 31.2793C37.6601 31.434 37.7993 31.6963 37.7966 31.9763C37.7939 32.2563 37.6497 32.5158 37.4134 32.666Z" fill="#7276F7"/>
</g>
<defs>
<clipPath id="clip0_1989_26775">
<rect width="32" height="32" fill="white" transform="translate(16 16)"/>
</clipPath>
</defs>
</svg>
