<svg width="64" height="64" viewBox="0 0 64 64" fill="none" xmlns="http://www.w3.org/2000/svg">
<path d="M0 32C0 14.3269 14.3269 0 32 0C49.6731 0 64 14.3269 64 32C64 49.6731 49.6731 64 32 64C14.3269 64 0 49.6731 0 32Z" fill="#D25BBC"/>
<path d="M0 32C0 14.3269 14.3269 0 32 0C49.6731 0 64 14.3269 64 32C64 49.6731 49.6731 64 32 64C14.3269 64 0 49.6731 0 32Z" fill="white" fill-opacity="0.8"/>
<g clip-path="url(#clip0_1989_26793)">
<path fill-rule="evenodd" clip-rule="evenodd" d="M42.2002 20H21.8C20.0727 20.0072 18.6742 21.3485 18.6667 23.0053V34.5801C18.6743 36.2275 20.0687 37.5592 21.7863 37.5592H30.625C30.9102 37.5609 31.1876 37.6481 31.4186 37.8085L38.8344 43.9503C38.9197 44.0075 39.0307 44.016 39.1244 43.9724C39.2181 43.9288 39.2799 43.84 39.2859 43.7403L39.409 37.9922C39.4164 37.7509 39.6225 37.559 39.8742 37.5592H42.2002C43.9275 37.552 45.3259 36.2107 45.3334 34.5539V22.979C45.3298 22.1855 44.9977 21.4258 44.4101 20.8671C43.8225 20.3084 43.0275 19.9965 42.2002 20ZM24.6667 30.6666C23.5622 30.6666 22.6667 29.7712 22.6667 28.6666C22.6667 27.5621 23.5622 26.6666 24.6667 26.6666C25.7713 26.6666 26.6667 27.5621 26.6667 28.6666C26.6667 29.7712 25.7713 30.6666 24.6667 30.6666ZM39.3334 30.6666C38.2288 30.6666 37.3334 29.7712 37.3334 28.6666C37.3334 27.5621 38.2288 26.6666 39.3334 26.6666C40.438 26.6666 41.3334 27.5621 41.3334 28.6666C41.3334 29.7712 40.438 30.6666 39.3334 30.6666ZM32.0001 30.6666C30.8955 30.6666 30.0001 29.7712 30.0001 28.6666C30.0001 27.5621 30.8955 26.6666 32.0001 26.6666C33.1047 26.6666 34.0001 27.5621 34.0001 28.6666C34.0001 29.7712 33.1047 30.6666 32.0001 30.6666Z" fill="#D25BBC"/>
<path fill-rule="evenodd" clip-rule="evenodd" d="M42.2002 20H21.8C20.0727 20.0072 18.6742 21.3485 18.6667 23.0053V34.5801C18.6743 36.2275 20.0687 37.5592 21.7863 37.5592H30.625C30.9102 37.5609 31.1876 37.6481 31.4186 37.8085L38.8344 43.9503C38.9197 44.0075 39.0307 44.016 39.1244 43.9724C39.2181 43.9288 39.2799 43.84 39.2859 43.7403L39.409 37.9922C39.4164 37.7509 39.6225 37.559 39.8742 37.5592H42.2002C43.9275 37.552 45.3259 36.2107 45.3334 34.5539V22.979C45.3298 22.1855 44.9977 21.4258 44.4101 20.8671C43.8225 20.3084 43.0275 19.9965 42.2002 20ZM24.6667 30.6666C23.5622 30.6666 22.6667 29.7712 22.6667 28.6666C22.6667 27.5621 23.5622 26.6666 24.6667 26.6666C25.7713 26.6666 26.6667 27.5621 26.6667 28.6666C26.6667 29.7712 25.7713 30.6666 24.6667 30.6666ZM39.3334 30.6666C38.2288 30.6666 37.3334 29.7712 37.3334 28.6666C37.3334 27.5621 38.2288 26.6666 39.3334 26.6666C40.438 26.6666 41.3334 27.5621 41.3334 28.6666C41.3334 29.7712 40.438 30.6666 39.3334 30.6666ZM32.0001 30.6666C30.8955 30.6666 30.0001 29.7712 30.0001 28.6666C30.0001 27.5621 30.8955 26.6666 32.0001 26.6666C33.1047 26.6666 34.0001 27.5621 34.0001 28.6666C34.0001 29.7712 33.1047 30.6666 32.0001 30.6666Z" fill="#D25BBC"/>
</g>
<defs>
<clipPath id="clip0_1989_26793">
<rect width="32" height="32" fill="white" transform="translate(16 16)"/>
</clipPath>
</defs>
</svg>
