<svg width="64" height="64" viewBox="0 0 64 64" fill="none" xmlns="http://www.w3.org/2000/svg">
<path d="M0 32C0 14.3269 14.3269 0 32 0C49.6731 0 64 14.3269 64 32C64 49.6731 49.6731 64 32 64C14.3269 64 0 49.6731 0 32Z" fill="#F97C4C"/>
<path d="M0 32C0 14.3269 14.3269 0 32 0C49.6731 0 64 14.3269 64 32C64 49.6731 49.6731 64 32 64C14.3269 64 0 49.6731 0 32Z" fill="white" fill-opacity="0.8"/>
<g clip-path="url(#clip0_1989_26803)">
<path d="M37.6758 24.3877C37.6807 27.5508 35.1373 30.1198 31.9934 30.1272C28.8455 30.1272 26.2915 27.5637 26.2842 24.3966C26.2842 21.2334 28.8316 18.6685 31.9756 18.666C35.1196 18.6636 37.6709 21.2245 37.6758 24.3877Z" fill="#F97C4C"/>
<path d="M32 33.162C36.7042 33.162 41.0606 35.655 43.465 39.7229C44.1533 40.8604 44.1792 42.2828 43.5326 43.4448C42.886 44.6069 41.6673 45.3283 40.3437 45.3327H23.643C22.3218 45.3235 21.1075 44.6002 20.4642 43.439C19.8208 42.2779 19.8479 40.8584 20.535 39.7229C22.9395 35.655 27.2959 33.162 32 33.162Z" fill="#F97C4C"/>
<path d="M37.6758 24.3877C37.6807 27.5508 35.1373 30.1198 31.9934 30.1272C28.8455 30.1272 26.2915 27.5637 26.2842 24.3966C26.2842 21.2334 28.8316 18.6685 31.9756 18.666C35.1196 18.6636 37.6709 21.2245 37.6758 24.3877Z" fill="#F97C4C"/>
<path d="M32 33.162C36.7042 33.162 41.0606 35.655 43.465 39.7229C44.1533 40.8604 44.1792 42.2828 43.5326 43.4448C42.886 44.6069 41.6673 45.3283 40.3437 45.3327H23.643C22.3218 45.3235 21.1075 44.6002 20.4642 43.439C19.8208 42.2779 19.8479 40.8584 20.535 39.7229C22.9395 35.655 27.2959 33.162 32 33.162Z" fill="#F97C4C"/>
</g>
<defs>
<clipPath id="clip0_1989_26803">
<rect width="32" height="32" fill="white" transform="translate(16 16)"/>
</clipPath>
</defs>
</svg>
